# xmcd
#
# Track frame offsets:
#  150
#  15479
#  31944
#  48963
#  65941
#  88929
#  111470
#  124905
#  150695
#  177856
#  187728
#  214857
#  236707
#  254573
#  273511
#
# Disc length: 3977 seconds
#
# Revision: 0
# Processed by: cddbd v1.5.2PL0 Copyright (c) Steve Scherf et al.
# Submitted via: Collectorz.com_Music_Collector 6.9
#
DISCID=d90f870f
DTITLE=Various Artist - JAZZ LADIES OF TODAY
DYEAR=1900
DGENRE=
TTITLE0=Nnenna Freelon - Straighten Up And Fly Right
TTITLE1=Marlena Shaw - Your Mind Is On Vacation
TTITLE2=Erykah Badu - On and On
TTITLE3=Molly Johnson - If You Know Love
TTITLE4=Shirley Horn - Solitary Moon
TTITLE5=Ledisi - Blues In The Night
TTITLE6=Liz Wright - I'm Confessin'
TTITLE7=Cassandra Wilson - Polka Dots And Moonbeams
TTITLE8=Monday Michiru - Oasis
TTITLE9=Natalie Cole - It's Crazy
TTITLE10=Claudia Acuna - Nature Boy
TTITLE11=Diane Schuur - Lover Come Back To Me
TTITLE12=Patti Austin - Too Close For Comfort
TTITLE13=Karrin Allyson - Don't Let Me Be Lonely Tonight
TTITLE14=Dianne Reeves - Solitude
EXTD=
EXTT0=
EXTT1=
EXTT2=
EXTT3=
EXTT4=
EXTT5=
EXTT6=
EXTT7=
EXTT8=
EXTT9=
EXTT10=
EXTT11=
EXTT12=
EXTT13=
EXTT14=
PLAYORDER=
